<svg xmlns="http://www.w3.org/2000/svg" version="1.1" xmlns:xlink="http://www.w3.org/1999/xlink" xmlns:svgjs="http://svgjs.dev/svgjs" width="100%" height="100%" viewBox="0 0 1000 600"><rect width="1000" height="600" x="0" y="0" fill="white"/><g><rect width="333.3333333333333" height="333.3333333333333" y="109.27854233173528" fill="green" transform="matrix(1.435852182009221,0,0,1.4358521820092212,0,-96.21653161600925)" x="87.05631256103514"/><path d="M200.88737982874864 200.9452050904235L241.4223980806644 200.9452050904235Q259.8951601781897 200.9452050904235 271.94768900327335 205.52691701666598Q284.0002178283571 210.07944606439733 289.9535250446212 219.41796718794885Q295.90683226088527 228.75648831150036 295.90683226088527 243.23119605300522L295.90683226088527 243.23119605300522Q295.90683226088527 255.10862760702227 291.58776624124266 263.0755534405522Q287.26870022160017 271.01329639557093 280.2939922574476 275.9452028639465Q273.319284293295 280.8771093323222 265.41072421678734 283.5327512768322L265.41072421678734 283.5327512768322L306.5585829174362 350.9452006374696L286.2472994737117 350.9452006374696L249.5352383067498 288.34792623116346L218.3387411783855 288.34792623116346L218.3387411783855 350.9452006374696L200.88737982874864 350.9452006374696L200.88737982874864 200.9452050904235ZM240.40099733277597 216.03275328066144L240.40099733277597 216.03275328066144L218.3387411783855 216.03275328066144L218.3387411783855 273.58138970454763L242.12278716493077 273.58138970454763Q260.5080006269228 273.58138970454763 269.17531554471907 266.1105728057064Q277.84263046251533 258.6105730283541 277.84263046251533 244.04831665131596L277.84263046251533 244.04831665131596Q277.84263046251533 228.75648831150036 268.65002373151924 222.3946207960809Q259.4865998790343 216.03275328066144 240.40099733277597 216.03275328066144Z " fill="white" transform="matrix(1.435852182009221,0,0,1.4358521820092212,0,-96.21653161600925)"/><path d="M503.7229816353892 200.9452050904235L544.257999887305 200.9452050904235Q562.7307619848302 200.9452050904235 574.783290809914 205.52691701666598Q586.8358196349977 210.07944606439733 592.7891268512617 219.41796718794885Q598.7424340675259 228.75648831150036 598.7424340675259 243.23119605300522L598.7424340675259 243.23119605300522Q598.7424340675259 255.10862760702227 594.4233680478833 263.0755534405522Q590.1043020282407 271.01329639557093 583.1295940640882 275.9452028639465Q576.1548860999355 280.8771093323222 568.2463260234279 283.5327512768322L568.2463260234279 283.5327512768322L609.3941847240767 350.9452006374696L589.0829012803522 350.9452006374696L552.3708401133904 288.34792623116346L521.1743429850262 288.34792623116346L521.1743429850262 350.9452006374696L503.7229816353892 350.9452006374696L503.7229816353892 200.9452050904235ZM543.2365991394165 216.03275328066144L543.2365991394165 216.03275328066144L521.1743429850262 216.03275328066144L521.1743429850262 273.58138970454763L544.9583889715714 273.58138970454763Q563.3436024335633 273.58138970454763 572.0109173513597 266.1105728057064Q580.6782322691558 258.6105730283541 580.6782322691558 244.04831665131596L580.6782322691558 244.04831665131596Q580.6782322691558 228.75648831150036 571.4856255381599 222.3946207960809Q562.322201685675 216.03275328066144 543.2365991394165 216.03275328066144Z " fill="white" transform="matrix(1.435852182009221,0,0,1.4358521820092212,0,-96.21653161600925)"/></g></svg>